<mxfile host="Electron" modified="2024-12-11T10:09:12.984Z" agent="Mozilla/5.0 (Windows NT 10.0; Win64; x64) AppleWebKit/537.36 (KHTML, like Gecko) draw.io/24.4.13 Chrome/124.0.6367.207 Electron/30.0.6 Safari/537.36" etag="PwxCHrHHBvLwFwsCoS23" version="24.4.13" type="device">
  <diagram name="PÃ¡gina-1" id="jtMgDRI7nFC4AI9-qfWd">
    <mxGraphModel dx="1434" dy="844" grid="1" gridSize="10" guides="1" tooltips="1" connect="1" arrows="1" fold="1" page="1" pageScale="1" pageWidth="827" pageHeight="1169" math="0" shadow="0">
      <root>
        <mxCell id="0" />
        <mxCell id="1" parent="0" />
        <mxCell id="RxANfqiya3bKqditR8YD-5" style="edgeStyle=orthogonalEdgeStyle;rounded=0;orthogonalLoop=1;jettySize=auto;html=1;endArrow=none;endFill=0;" edge="1" parent="1" source="RxANfqiya3bKqditR8YD-2" target="RxANfqiya3bKqditR8YD-3">
          <mxGeometry relative="1" as="geometry" />
        </mxCell>
        <mxCell id="RxANfqiya3bKqditR8YD-6" style="edgeStyle=orthogonalEdgeStyle;rounded=0;orthogonalLoop=1;jettySize=auto;html=1;endArrow=none;endFill=0;" edge="1" parent="1" source="RxANfqiya3bKqditR8YD-2" target="RxANfqiya3bKqditR8YD-4">
          <mxGeometry relative="1" as="geometry" />
        </mxCell>
        <mxCell id="RxANfqiya3bKqditR8YD-2" value="Client" style="rounded=0;whiteSpace=wrap;html=1;" vertex="1" parent="1">
          <mxGeometry x="240" y="300" width="120" height="60" as="geometry" />
        </mxCell>
        <mxCell id="RxANfqiya3bKqditR8YD-3" value="Register" style="rounded=0;whiteSpace=wrap;html=1;" vertex="1" parent="1">
          <mxGeometry x="10" y="300" width="120" height="60" as="geometry" />
        </mxCell>
        <mxCell id="RxANfqiya3bKqditR8YD-4" value="SVC" style="rounded=0;whiteSpace=wrap;html=1;" vertex="1" parent="1">
          <mxGeometry x="460" y="300" width="120" height="60" as="geometry" />
        </mxCell>
        <mxCell id="RxANfqiya3bKqditR8YD-7" value="1" style="text;html=1;align=center;verticalAlign=middle;resizable=0;points=[];autosize=1;strokeColor=none;fillColor=none;" vertex="1" parent="1">
          <mxGeometry x="170" y="300" width="30" height="30" as="geometry" />
        </mxCell>
        <mxCell id="RxANfqiya3bKqditR8YD-8" value="2" style="text;html=1;align=center;verticalAlign=middle;resizable=0;points=[];autosize=1;strokeColor=none;fillColor=none;" vertex="1" parent="1">
          <mxGeometry x="398.5" y="300" width="30" height="30" as="geometry" />
        </mxCell>
      </root>
    </mxGraphModel>
  </diagram>
</mxfile>
